<svg xmlns="http://www.w3.org/2000/svg" xmlns:xlink="http://www.w3.org/1999/xlink">

<symbol id="github" fill-rule="evenodd" clip-rule="evenodd" stroke-linejoin="round" stroke-miterlimit="1.414" viewBox="0 0 16 16"><path d="M8 0C3.58 0 0 3.582 0 8c0 3.535 2.292 6.533 5.47 7.59.4.075.547-.172.547-.385 0-.19-.007-.693-.01-1.36-2.226.483-2.695-1.073-2.695-1.073-.364-.924-.89-1.17-.89-1.17-.725-.496.056-.486.056-.486.803.056 1.225.824 1.225.824.714 1.223 1.873.87 2.33.665.072-.517.278-.87.507-1.07-1.777-.2-3.644-.888-3.644-3.953 0-.873.31-1.587.823-2.147-.09-.202-.36-1.015.07-2.117 0 0 .67-.215 2.2.82.64-.178 1.32-.266 2-.27.68.004 1.36.092 2 .27 1.52-1.035 2.19-.82 2.19-.82.43 1.102.16 1.915.08 2.117.51.56.82 1.274.82 2.147 0 3.073-1.87 3.75-3.65 3.947.28.24.54.73.54 1.48 0 1.07-.01 1.93-.01 2.19 0 .21.14.46.55.38C13.71 14.53 16 11.53 16 8c0-4.418-3.582-8-8-8"/></symbol><symbol id="linkedin" fill-rule="evenodd" clip-rule="evenodd" stroke-linejoin="round" stroke-miterlimit="1.414" viewBox="0 0 16 16"><path d="M13.632 13.635h-2.37V9.922c0-.886-.018-2.025-1.234-2.025-1.235 0-1.424.964-1.424 1.96v3.778h-2.37V6H8.51v1.04h.03c.318-.6 1.092-1.233 2.247-1.233 2.4 0 2.845 1.58 2.845 3.637v4.188zM3.558 4.955c-.762 0-1.376-.617-1.376-1.377 0-.758.614-1.375 1.376-1.375.76 0 1.376.617 1.376 1.375 0 .76-.617 1.377-1.376 1.377zm1.188 8.68H2.37V6h2.376v7.635zM14.816 0H1.18C.528 0 0 .516 0 1.153v13.694C0 15.484.528 16 1.18 16h13.635c.652 0 1.185-.516 1.185-1.153V1.153C16 .516 15.467 0 14.815 0z"/></symbol><symbol id="tryhackme" fill-rule="evenodd" clip-rule="evenodd" stroke-linejoin="round" stroke-miterlimit="1.414" viewBox="0 0 16 16"><path d="M10.705 0C7.54 0 4.902 2.285 4.349 5.291a4.525 4.525 0 0 0-4.107 4.5 4.525 4.525 0 0 0 4.52 4.52h6.761a.625.625 0 1 0 0-1.25H4.761a3.273 3.273 0 0 1-3.27-3.27A3.273 3.273 0 0 1 6.59 7.08a.625.625 0 0 0 .7-1.035 4.488 4.488 0 0 0-1.68-.69 5.223 5.223 0 0 1 5.096-4.104 5.221 5.221 0 0 1 5.174 4.57 4.489 4.489 0 0 0-.488.305.625.625 0 1 0 .731 1.013 3.245 3.245 0 0 1 1.912-.616 3.278 3.278 0 0 1 3.203 2.61.625.625 0 0 0 1.225-.251 4.533 4.533 0 0 0-4.428-3.61 4.54 4.54 0 0 0-.958.105C16.556 2.328 13.9 0 10.705 0zm5.192 10.64a.925.925 0 0 0-.462.108.913.913 0 0 0-.313.29 1.27 1.27 0 0 0-.175.427 2.39 2.39 0 0 0-.054.514c0 .181.018.353.054.517.036.164.095.307.175.43a.899.899 0 0 0 .313.297c.127.073.281.11.462.11.18 0 .334-.037.46-.11a.897.897 0 0 0 .309-.296c.08-.124.137-.267.173-.431.036-.164.054-.336.054-.517 0-.18-.018-.352-.054-.514a1.271 1.271 0 0 0-.173-.426.901.901 0 0 0-.309-.291.917.917 0 0 0-.46-.108zm6.486 0a.925.925 0 0 0-.462.108.913.913 0 0 0-.313.29 1.27 1.27 0 0 0-.175.427 2.39 2.39 0 0 0-.053.514c0 .181.017.353.053.517.036.164.095.307.175.43a.899.899 0 0 0 .313.297c.127.073.281.11.462.11.18 0 .334-.037.46-.11a.897.897 0 0 0 .31-.296c.078-.124.136-.267.172-.431.036-.164.054-.336.054-.517 0-.18-.018-.352-.054-.514a1.271 1.271 0 0 0-.173-.426.901.901 0 0 0-.308-.291.916.916 0 0 0-.461-.108zm-8.537.068l-.84.618.313.43.476-.368v1.877h.603v-2.557zm6.486 0l-.841.618.314.43.477-.368v1.877h.603v-2.557zm-4.435.445c.08 0 .143.028.193.084.05.057.087.127.114.21.026.083.044.173.054.269a2.541 2.541 0 0 1 0 .533c-.01.097-.028.187-.054.27a.584.584 0 0 1-.114.21.243.243 0 0 1-.193.085.248.248 0 0 1-.195-.086.584.584 0 0 1-.118-.209 1.245 1.245 0 0 1-.056-.27 2.645 2.645 0 0 1 0-.533c.01-.096.029-.186.056-.27a.583.583 0 0 1 .118-.209.25.25 0 0 1 .195-.084zm6.486 0c.08 0 .144.028.193.084.05.057.087.127.114.21.027.083.044.173.054.269a2.541 2.541 0 0 1 0 .533c-.01.097-.027.187-.054.27a.584.584 0 0 1-.114.21.243.243 0 0 1-.193.085.249.249 0 0 1-.195-.086.581.581 0 0 1-.117-.209 1.245 1.245 0 0 1-.056-.27 2.642 2.642 0 0 1 0-.533c.01-.096.028-.186.056-.27a.58.58 0 0 1 .117-.209.25.25 0 0 1 .195-.084zm-2.191 3.51a.93.93 0 0 0-.463.109.908.908 0 0 0-.312.291c-.08.122-.139.263-.175.426a2.383 2.383 0 0 0-.054.514c0 .18.018.353.054.516.036.164.094.308.175.432a.91.91 0 0 0 .312.296.92.92 0 0 0 .463.11c.18 0 .333-.037.46-.11a.892.892 0 0 0 .308-.296 1.32 1.32 0 0 0 .174-.432c.036-.163.054-.335.054-.516 0-.18-.018-.352-.054-.514a1.274 1.274 0 0 0-.174-.426.89.89 0 0 0-.309-.291.918.918 0 0 0-.46-.108zm-6.402.07l-.841.617.314.43.476-.369v1.878h.604v-2.557zm2.125 0l-.841.617.314.43.477-.369v1.878h.603v-2.557zm2.116 0l-.84.617.313.43.477-.369v1.878h.603v-2.557zm2.16.443c.08 0 .144.028.194.085a.605.605 0 0 1 .114.21c.026.083.044.172.053.269a2.639 2.639 0 0 1 0 .532 1.28 1.28 0 0 1-.053.27.585.585 0 0 1-.114.21.244.244 0 0 1-.193.085.25.25 0 0 1-.196-.085.589.589 0 0 1-.117-.21 1.245 1.245 0 0 1-.056-.27 2.597 2.597 0 0 1 0-.532c.01-.097.028-.186.056-.27a.589.589 0 0 1 .117-.209.249.249 0 0 1 .196-.085zm-6.729 3.073a.676.676 0 0 0-.335.078.661.661 0 0 0-.227.211.91.91 0 0 0-.127.31c-.027.118-.04.242-.04.373s.013.256.04.375a.93.93 0 0 0 .127.313.65.65 0 0 0 .227.215c.092.053.204.08.335.08a.655.655 0 0 0 .334-.08.65.65 0 0 0 .225-.215c.057-.09.1-.194.125-.313a1.75 1.75 0 0 0 .04-.375c0-.13-.014-.255-.04-.373a.931.931 0 0 0-.125-.31.658.658 0 0 0-.225-.21.667.667 0 0 0-.334-.08zm3.086 0a.675.675 0 0 0-.336.078.661.661 0 0 0-.226.211.907.907 0 0 0-.127.31 1.69 1.69 0 0 0-.04.373c0 .131.013.256.04.375a.928.928 0 0 0 .127.313c.058.09.134.162.226.215.093.053.205.08.336.08a.655.655 0 0 0 .334-.08.65.65 0 0 0 .224-.215c.058-.09.1-.194.126-.313a1.752 1.752 0 0 0 0-.748.94.94 0 0 0-.126-.31.657.657 0 0 0-.224-.21.667.667 0 0 0-.334-.08zm5.108 0a.675.675 0 0 0-.336.078.661.661 0 0 0-.226.211.91.91 0 0 0-.127.31c-.027.118-.04.242-.04.373s.013.256.04.375a.931.931 0 0 0 .127.313c.058.09.134.162.226.215.093.053.205.08.336.08.13 0 .243-.027.334-.08a.65.65 0 0 0 .224-.215c.058-.09.1-.194.126-.313a1.75 1.75 0 0 0 .04-.375c0-.13-.014-.255-.04-.373a.943.943 0 0 0-.126-.31.657.657 0 0 0-.224-.21.668.668 0 0 0-.334-.08zm-6.658.05l-.61.448.227.311.346-.266v1.362h.438v-1.856zm3.068 0l-.61.448.227.311.346-.266v1.362h.438v-1.856zm5.108 0l-.611.448.228.311.346-.266v1.362h.438v-1.856zm-9.712.322c.058 0 .105.02.14.062a.421.421 0 0 1 .083.151.96.96 0 0 1 .04.196 1.932 1.932 0 0 1 0 .386.954.954 0 0 1-.04.197.421.421 0 0 1-.083.152.176.176 0 0 1-.14.061.18.18 0 0 1-.141-.06.427.427 0 0 1-.085-.153.887.887 0 0 1-.041-.197 1.96 1.96 0 0 1 0-.386.893.893 0 0 1 .04-.196.42.42 0 0 1 .086-.151.181.181 0 0 1 .141-.062zm3.086 0c.058 0 .104.02.14.062a.421.421 0 0 1 .082.151.94.94 0 0 1 .04.196 1.906 1.906 0 0 1 0 .386.93.93 0 0 1-.04.197.421.421 0 0 1-.082.152.176.176 0 0 1-.14.061.18.18 0 0 1-.141-.06.42.42 0 0 1-.086-.153.846.846 0 0 1-.04-.197 1.965 1.965 0 0 1-.011-.195c0-.057.004-.121.01-.191a.849.849 0 0 1 .041-.196.42.42 0 0 1 .086-.151.182.182 0 0 1 .141-.062zm5.108 0c.058 0 .104.02.14.062a.421.421 0 0 1 .082.151.92.92 0 0 1 .04.196 1.963 1.963 0 0 1 0 .386.943.943 0 0 1-.04.197.421.421 0 0 1-.082.152.177.177 0 0 1-.14.061.18.18 0 0 1-.142-.06.437.437 0 0 1-.085-.153.95.95 0 0 1-.04-.197 1.965 1.965 0 0 1-.011-.195c0-.057.004-.121.01-.191a.959.959 0 0 1 .04-.196.47.47 0 0 1 .086-.151.181.181 0 0 1 .142-.062zm-1.684 1.814a.675.675 0 0 0-.336.079.66.66 0 0 0-.227.21.91.91 0 0 0-.127.31 1.731 1.731 0 0 0 0 .748.939.939 0 0 0 .127.314c.059.09.134.162.227.215.093.053.205.08.336.08a.66.66 0 0 0 .334-.08.648.648 0 0 0 .224-.215c.058-.09.1-.195.126-.314a1.737 1.737 0 0 0-.001-.747.928.928 0 0 0-.125-.31.65.65 0 0 0-.224-.211.668.668 0 0 0-.334-.079zm3.063 0a.676.676 0 0 0-.336.079.664.664 0 0 0-.227.21.906.906 0 0 0-.127.31 1.74 1.74 0 0 0 0 .748.936.936 0 0 0 .127.314.66.66 0 0 0 .227.215c.092.053.204.08.336.08a.654.654 0 0 0 .334-.08.648.648 0 0 0 .223-.215c.058-.09.1-.195.126-.314a1.74 1.74 0 0 0 0-.747.928.928 0 0 0-.126-.31.65.65 0 0 0-.223-.211.666.666 0 0 0-.334-.079zm-1.545.05l-.611.448.228.312.346-.267v1.363h.438v-1.856zm-1.518.323c.057 0 .104.02.14.061a.42.42 0 0 1 .082.152.91.91 0 0 1 .04.195 1.966 1.966 0 0 1 0 .387.951.951 0 0 1-.04.197.421.421 0 0 1-.082.152.177.177 0 0 1-.14.06.18.18 0 0 1-.142-.06.428.428 0 0 1-.085-.152.914.914 0 0 1-.04-.197 1.96 1.96 0 0 1-.011-.195c0-.058.003-.122.01-.192a.923.923 0 0 1 .041-.195c.02-.06.048-.11.085-.152a.181.181 0 0 1 .142-.061zm3.063 0c.057 0 .104.02.14.061a.42.42 0 0 1 .082.152.94.94 0 0 1 .04.195 1.91 1.91 0 0 1 0 .387.93.93 0 0 1-.04.197.422.422 0 0 1-.083.152.175.175 0 0 1-.14.06.18.18 0 0 1-.141-.06.423.423 0 0 1-.085-.152.907.907 0 0 1-.04-.197 1.95 1.95 0 0 1 0-.387.915.915 0 0 1 .04-.195c.02-.06.048-.11.085-.152a.182.182 0 0 1 .142-.061zm-9.713.185a.465.465 0 0 0-.232.055.456.456 0 0 0-.157.146.627.627 0 0 0-.089.215 1.168 1.168 0 0 0-.027.259c0 .09.009.177.027.26a.648.648 0 0 0 .089.216c.04.063.093.112.157.149a.459.459 0 0 0 .232.056c.09 0 .168-.02.231-.056a.45.45 0 0 0 .156-.149.67.67 0 0 0 .087-.217 1.218 1.218 0 0 0 0-.518.647.647 0 0 0-.087-.215.448.448 0 0 0-.156-.146.458.458 0 0 0-.23-.055zm1.052.035l-.423.31.158.217.24-.185v.944h.303v-1.286zm-1.052.224c.04 0 .073.014.097.042a.284.284 0 0 1 .057.105.69.69 0 0 1 .028.136c.004.049.007.092.007.133 0 .04-.003.086-.007.135a.684.684 0 0 1-.028.136.285.285 0 0 1-.057.105.123.123 0 0 1-.097.043.125.125 0 0 1-.098-.043.298.298 0 0 1-.059-.105.612.612 0 0 1-.028-.136 1.39 1.39 0 0 1 0-.268.62.62 0 0 1 .028-.136.297.297 0 0 1 .06-.105.125.125 0 0 1 .097-.042zm3.775 1.394a.463.463 0 0 0-.232.054.452.452 0 0 0-.157.146.621.621 0 0 0-.088.214 1.19 1.19 0 0 0 0 .519.641.641 0 0 0 .088.217.46.46 0 0 0 .157.15.458.458 0 0 0 .232.054.454.454 0 0 0 .232-.055.45.45 0 0 0 .155-.149.664.664 0 0 0 .087-.217 1.189 1.189 0 0 0 0-.519.642.642 0 0 0-.087-.214.446.446 0 0 0-.155-.146.459.459 0 0 0-.232-.054zm1.052.034l-.423.31.158.216.24-.185v.945h.303V22.68zm-1.052.223c.04 0 .073.014.098.043a.3.3 0 0 1 .057.105.643.643 0 0 1 .027.135 1.31 1.31 0 0 1 0 .268.654.654 0 0 1-.027.137.307.307 0 0 1-.057.105.124.124 0 0 1-.098.042.125.125 0 0 1-.098-.042.293.293 0 0 1-.059-.105.618.618 0 0 1-.028-.137 1.364 1.364 0 0 1 0-.268.612.612 0 0 1 .028-.135.287.287 0 0 1 .06-.105.123.123 0 0 1 .097-.043z"/></symbol><symbol id="ctftime" fill-rule="evenodd" clip-rule="evenodd" stroke-linejoin="round" stroke-miterlimit="1.414" viewBox="0 0 16 16"><path d="M12 1181 c2 -6 107 -134 233 -287 127 -152 235 -285 242 -294 10 -15
-22 -57 -233 -305 -134 -158 -244 -289 -244 -291 0 -2 954 -4 2120 -4 l2120 0
0 595 0 595 -2121 0 c-1314 0 -2119 -4 -2117 -9z m1196 -358 l3 -53 -85 0 -86
0 0 -175 0 -175 85 0 85 0 0 -50 0 -50 -140 0 -140 0 0 280 0 281 138 -3 137
-3 3 -52z m352 2 l0 -55 -35 0 -35 0 0 -225 0 -225 -60 0 -60 0 0 225 0 225
-40 0 -40 0 0 48 c0 27 3 52 7 55 3 4 64 7 135 7 l128 0 0 -55z m378 -2 l3
-53 -85 0 -86 0 0 -70 0 -70 65 0 65 0 0 -45 0 -45 -65 0 -64 0 -3 -107 -3
-108 -57 -3 -58 -3 0 281 0 281 143 -3 142 -3 3 -52z m690 -225 l2 -278 -300
0 -300 0 0 273 c0 151 3 277 7 280 4 4 137 6 297 5 l291 -3 3 -277z m344 277
c2 -3 3 -18 0 -35 -4 -27 -8 -30 -43 -30 l-39 0 0 -245 0 -245 -35 0 -35 0 0
245 0 245 -40 0 c-39 0 -40 1 -40 35 l0 35 113 0 c63 0 116 -2 119 -5z m146
-277 l2 -278 -35 0 -35 0 0 281 0 280 33 -3 32 -3 3 -277z m201 185 c20 -51
39 -93 42 -93 4 0 22 42 41 93 35 91 35 92 69 92 l34 0 3 -277 2 -278 -35 0
-35 0 -2 188 -3 187 -34 -87 c-18 -49 -37 -88 -40 -88 -4 0 -19 35 -35 78 -16
42 -33 81 -38 86 -4 6 -8 -74 -8 -178 l0 -187 -32 3 -33 3 -3 265 c-1 146 0
271 3 278 3 8 17 12 37 10 31 -3 34 -7 67 -95z m551 88 c0 -5 -4 -21 -10 -35
-9 -25 -12 -26 -100 -26 l-90 0 0 -90 0 -90 55 0 55 0 0 -35 0 -35 -55 0 -55
0 0 -85 0 -85 90 0 c50 0 90 -1 90 -3 0 -1 4 -17 9 -35 l10 -32 -135 0 -134 0
0 273 c0 151 3 277 7 280 10 11 263 8 263 -2z"/>
<path d="M2318 697 l102 -102 -73 -73 -73 -72 -29 30 -29 30 44 45 45 45 -93
93 -92 92 0 -193 0 -192 210 0 210 0 0 200 0 200 -162 0 -163 0 103 -103z"/></symbol><symbol id="rss" fill-rule="evenodd" clip-rule="evenodd" stroke-linejoin="round" stroke-miterlimit="1.414" viewBox="0 0 16 16"><path d="M12.8 16C12.8 8.978 7.022 3.2 0 3.2V0c8.777 0 16 7.223 16 16h-3.2zM2.194 11.61c1.21 0 2.195.985 2.195 2.196 0 1.21-.99 2.194-2.2 2.194C.98 16 0 15.017 0 13.806c0-1.21.983-2.195 2.194-2.195zM10.606 16h-3.11c0-4.113-3.383-7.497-7.496-7.497v-3.11c5.818 0 10.606 4.79 10.606 10.607z"/></symbol></svg>