<svg xmlns="http://www.w3.org/2000/svg" xmlns:xlink="http://www.w3.org/1999/xlink">

<symbol id="dribbble" fill-rule="evenodd" clip-rule="evenodd" stroke-linejoin="round" stroke-miterlimit="1.414"><path d="M8 16c-4.41 0-8-3.59-8-8s3.59-8 8-8 8 3.59 8 8-3.59 8-8 8zm6.747-6.905c-.234-.074-2.115-.635-4.257-.292.894 2.456 1.258 4.456 1.328 4.872 1.533-1.037 2.624-2.68 2.93-4.58zM10.67 14.3c-.102-.6-.5-2.688-1.46-5.18l-.044.014C5.312 10.477 3.93 13.15 3.806 13.4c1.158.905 2.614 1.444 4.194 1.444.947 0 1.85-.194 2.67-.543zm-7.747-1.72c.155-.266 2.03-3.37 5.555-4.51.09-.03.18-.056.27-.08-.173-.39-.36-.778-.555-1.16-3.413 1.02-6.723.977-7.023.97l-.003.208c0 1.755.665 3.358 1.756 4.57zM1.31 6.61c.307.005 3.122.017 6.318-.832-1.132-2.012-2.353-3.705-2.533-3.952-1.912.902-3.34 2.664-3.784 4.785zM6.4 1.368c.188.253 1.43 1.943 2.548 4 2.43-.91 3.46-2.293 3.582-2.468C11.323 1.827 9.736 1.176 8 1.176c-.55 0-1.087.066-1.6.19zm6.89 2.322c-.145.194-1.29 1.662-3.816 2.694.16.325.31.656.453.99.05.117.1.235.147.352 2.274-.286 4.533.172 4.758.22-.015-1.613-.59-3.094-1.543-4.257z"/></symbol>

<symbol id="facebook" fill-rule="evenodd" clip-rule="evenodd" stroke-linejoin="round" stroke-miterlimit="1.414"><path d="M15.117 0H.883C.395 0 0 .395 0 .883v14.234c0 .488.395.883.883.883h7.663V9.804H6.46V7.39h2.086V5.607c0-2.066 1.262-3.19 3.106-3.19.883 0 1.642.064 1.863.094v2.16h-1.28c-1 0-1.195.48-1.195 1.18v1.54h2.39l-.31 2.42h-2.08V16h4.077c.488 0 .883-.395.883-.883V.883C16 .395 15.605 0 15.117 0" fill-rule="nonzero"/></symbol>

<symbol id="flickr" fill-rule="evenodd" clip-rule="evenodd" stroke-linejoin="round" stroke-miterlimit="1.414"><path d="M0 8c0 2.05 1.662 3.71 3.71 3.71 2.05 0 3.713-1.66 3.713-3.71S5.76 4.29 3.71 4.29C1.663 4.29 0 5.95 0 8zm8.577 0c0 2.05 1.662 3.71 3.712 3.71C14.33 11.71 16 10.05 16 8s-1.662-3.71-3.71-3.71c-2.05 0-3.713 1.66-3.713 3.71z"/></symbol>

<symbol id="github" fill-rule="evenodd" clip-rule="evenodd" stroke-linejoin="round" stroke-miterlimit="1.414"><path d="M8 0C3.58 0 0 3.582 0 8c0 3.535 2.292 6.533 5.47 7.59.4.075.547-.172.547-.385 0-.19-.007-.693-.01-1.36-2.226.483-2.695-1.073-2.695-1.073-.364-.924-.89-1.17-.89-1.17-.725-.496.056-.486.056-.486.803.056 1.225.824 1.225.824.714 1.223 1.873.87 2.33.665.072-.517.278-.87.507-1.07-1.777-.2-3.644-.888-3.644-3.953 0-.873.31-1.587.823-2.147-.09-.202-.36-1.015.07-2.117 0 0 .67-.215 2.2.82.64-.178 1.32-.266 2-.27.68.004 1.36.092 2 .27 1.52-1.035 2.19-.82 2.19-.82.43 1.102.16 1.915.08 2.117.51.56.82 1.274.82 2.147 0 3.073-1.87 3.75-3.65 3.947.28.24.54.73.54 1.48 0 1.07-.01 1.93-.01 2.19 0 .21.14.46.55.38C13.71 14.53 16 11.53 16 8c0-4.418-3.582-8-8-8"/></symbol>

<symbol id="googleplus" fill-rule="evenodd" clip-rule="evenodd" stroke-linejoin="round" stroke-miterlimit="1.414"><path d="M5.09 7.273v1.745h2.89c-.116.75-.873 2.197-2.887 2.197-1.737 0-3.155-1.44-3.155-3.215S3.353 4.785 5.09 4.785c.99 0 1.652.422 2.03.786l1.382-1.33c-.887-.83-2.037-1.33-3.41-1.33C2.275 2.91 0 5.19 0 8s2.276 5.09 5.09 5.09c2.94 0 4.888-2.065 4.888-4.974 0-.334-.036-.59-.08-.843H5.09zm10.91 0h-1.455V5.818H13.09v1.455h-1.454v1.454h1.455v1.455h1.46V8.727H16"/></symbol>

<symbol id="instagram" fill-rule="evenodd" clip-rule="evenodd" stroke-linejoin="round" stroke-miterlimit="1.414"><path d="M8 0C5.827 0 5.555.01 4.702.048 3.85.088 3.27.222 2.76.42c-.526.204-.973.478-1.417.923-.445.444-.72.89-.923 1.417-.198.51-.333 1.09-.372 1.942C.008 5.555 0 5.827 0 8s.01 2.445.048 3.298c.04.852.174 1.433.372 1.942.204.526.478.973.923 1.417.444.445.89.72 1.417.923.51.198 1.09.333 1.942.372.853.04 1.125.048 3.298.048s2.445-.01 3.298-.048c.852-.04 1.433-.174 1.942-.372.526-.204.973-.478 1.417-.923.445-.444.72-.89.923-1.417.198-.51.333-1.09.372-1.942.04-.853.048-1.125.048-3.298s-.01-2.445-.048-3.298c-.04-.852-.174-1.433-.372-1.942-.204-.526-.478-.973-.923-1.417-.444-.445-.89-.72-1.417-.923-.51-.198-1.09-.333-1.942-.372C10.445.008 10.173 0 8 0zm0 1.44c2.136 0 2.39.01 3.233.048.78.036 1.203.166 1.485.276.374.145.64.318.92.598.28.28.453.546.598.92.11.282.24.705.276 1.485.038.844.047 1.097.047 3.233s-.01 2.39-.05 3.233c-.04.78-.17 1.203-.28 1.485-.15.374-.32.64-.6.92-.28.28-.55.453-.92.598-.28.11-.71.24-1.49.276-.85.038-1.1.047-3.24.047s-2.39-.01-3.24-.05c-.78-.04-1.21-.17-1.49-.28-.38-.15-.64-.32-.92-.6-.28-.28-.46-.55-.6-.92-.11-.28-.24-.71-.28-1.49-.03-.84-.04-1.1-.04-3.23s.01-2.39.04-3.24c.04-.78.17-1.21.28-1.49.14-.38.32-.64.6-.92.28-.28.54-.46.92-.6.28-.11.7-.24 1.48-.28.85-.03 1.1-.04 3.24-.04zm0 2.452c-2.27 0-4.108 1.84-4.108 4.108 0 2.27 1.84 4.108 4.108 4.108 2.27 0 4.108-1.84 4.108-4.108 0-2.27-1.84-4.108-4.108-4.108zm0 6.775c-1.473 0-2.667-1.194-2.667-2.667 0-1.473 1.194-2.667 2.667-2.667 1.473 0 2.667 1.194 2.667 2.667 0 1.473-1.194 2.667-2.667 2.667zm5.23-6.937c0 .53-.43.96-.96.96s-.96-.43-.96-.96.43-.96.96-.96.96.43.96.96z"/></symbol>

<symbol id="linkedin" fill-rule="evenodd" clip-rule="evenodd" stroke-linejoin="round" stroke-miterlimit="1.414"><path d="M13.632 13.635h-2.37V9.922c0-.886-.018-2.025-1.234-2.025-1.235 0-1.424.964-1.424 1.96v3.778h-2.37V6H8.51v1.04h.03c.318-.6 1.092-1.233 2.247-1.233 2.4 0 2.845 1.58 2.845 3.637v4.188zM3.558 4.955c-.762 0-1.376-.617-1.376-1.377 0-.758.614-1.375 1.376-1.375.76 0 1.376.617 1.376 1.375 0 .76-.617 1.377-1.376 1.377zm1.188 8.68H2.37V6h2.376v7.635zM14.816 0H1.18C.528 0 0 .516 0 1.153v13.694C0 15.484.528 16 1.18 16h13.635c.652 0 1.185-.516 1.185-1.153V1.153C16 .516 15.467 0 14.815 0z" fill-rule="nonzero"/></symbol>

<symbol id="pinterest" fill-rule="evenodd" clip-rule="evenodd" stroke-linejoin="round" stroke-miterlimit="1.414"><path d="M8 0C3.582 0 0 3.582 0 8c0 3.39 2.108 6.285 5.084 7.45-.07-.633-.133-1.604.028-2.295.146-.625.938-3.977.938-3.977s-.24-.48-.24-1.188c0-1.11.646-1.943 1.448-1.943.683 0 1.012.513 1.012 1.127 0 .687-.436 1.713-.662 2.664-.19.797.4 1.445 1.185 1.445 1.42 0 2.514-1.498 2.514-3.662 0-1.91-1.376-3.25-3.342-3.25-2.276 0-3.61 1.71-3.61 3.47 0 .69.263 1.43.593 1.83.066.08.075.15.057.23-.06.25-.196.8-.223.91-.035.15-.115.18-.268.11C3.516 10.46 2.89 9 2.89 7.82c0-2.52 1.834-4.84 5.287-4.84 2.774 0 4.932 1.98 4.932 4.62 0 2.76-1.74 4.98-4.16 4.98-.81 0-1.57-.42-1.84-.92l-.5 1.9c-.18.698-.67 1.57-1 2.1.75.23 1.54.357 2.37.357 4.41 0 8-3.58 8-8s-3.59-8-8-8z" fill-rule="nonzero"/></symbol>

<symbol id="rss" fill-rule="evenodd" clip-rule="evenodd" stroke-linejoin="round" stroke-miterlimit="1.414"><path d="M12.8 16C12.8 8.978 7.022 3.2 0 3.2V0c8.777 0 16 7.223 16 16h-3.2zM2.194 11.61c1.21 0 2.195.985 2.195 2.196 0 1.21-.99 2.194-2.2 2.194C.98 16 0 15.017 0 13.806c0-1.21.983-2.195 2.194-2.195zM10.606 16h-3.11c0-4.113-3.383-7.497-7.496-7.497v-3.11c5.818 0 10.606 4.79 10.606 10.607z"/></symbol>

<symbol id="stackoverflow" class="svg-icon" xmlns="http://www.w3.org/2000/svg" fill-rule="evenodd" clip-rule="evenodd" stroke-linejoin="round" stroke-miterlimit="1.414"><path d="M12.658 14.577v-4.27h1.423V16H1.23v-5.693h1.42v4.27h10.006zm-8.583-1.423h7.16V11.73h-7.16v1.424zm.173-3.235l6.987 1.46.3-1.38L4.55 8.54l-.302 1.38zm.906-3.37l6.47 3.02.602-1.3-6.47-3.02-.602 1.29zm1.81-3.19l5.478 4.57.906-1.08L7.87 2.28l-.9 1.078zM10.502 0L9.338.863l4.27 5.735 1.164-.862L10.5 0z"/></symbol>

<symbol id="twitter" fill-rule="evenodd" clip-rule="evenodd" stroke-linejoin="round" stroke-miterlimit="1.414"><path d="M16 3.038c-.59.26-1.22.437-1.885.517.677-.407 1.198-1.05 1.443-1.816-.634.37-1.337.64-2.085.79-.598-.64-1.45-1.04-2.396-1.04-1.812 0-3.282 1.47-3.282 3.28 0 .26.03.51.085.75-2.728-.13-5.147-1.44-6.766-3.42C.83 2.58.67 3.14.67 3.75c0 1.14.58 2.143 1.46 2.732-.538-.017-1.045-.165-1.487-.41v.04c0 1.59 1.13 2.918 2.633 3.22-.276.074-.566.114-.865.114-.21 0-.41-.02-.61-.058.42 1.304 1.63 2.253 3.07 2.28-1.12.88-2.54 1.404-4.07 1.404-.26 0-.52-.015-.78-.045 1.46.93 3.18 1.474 5.04 1.474 6.04 0 9.34-5 9.34-9.33 0-.14 0-.28-.01-.42.64-.46 1.2-1.04 1.64-1.7z" fill-rule="nonzero"/></symbol>

<symbol id="youtube" fill-rule="evenodd" clip-rule="evenodd" stroke-linejoin="round" stroke-miterlimit="1.414"><path d="M0 7.345c0-1.294.16-2.59.16-2.59s.156-1.1.636-1.587c.608-.637 1.408-.617 1.764-.684C3.84 2.36 8 2.324 8 2.324s3.362.004 5.6.166c.314.038.996.04 1.604.678.48.486.636 1.588.636 1.588S16 6.05 16 7.346v1.258c0 1.296-.16 2.59-.16 2.59s-.156 1.102-.636 1.588c-.608.638-1.29.64-1.604.678-2.238.162-5.6.166-5.6.166s-4.16-.037-5.44-.16c-.356-.067-1.156-.047-1.764-.684-.48-.487-.636-1.587-.636-1.587S0 9.9 0 8.605v-1.26zm6.348 2.73V5.58l4.323 2.255-4.32 2.24z"/></symbol>

<symbol id="mastodon" fill-rule="evenodd" clip-rule="evenodd" stroke-linejoin="round" stroke-miterlimit="1.414">
  <path transform="scale(0.07)" d="M211.80734 139.0875c-3.18125 16.36625-28.4925 34.2775-57.5625 37.74875-15.15875 1.80875-30.08375 3.47125-45.99875 2.74125-26.0275-1.1925-46.565-6.2125-46.565-6.2125 0 2.53375.15625 4.94625.46875 7.2025 3.38375 25.68625 25.47 27.225 46.39125 27.9425 21.11625.7225 39.91875-5.20625 39.91875-5.20625l.8675 19.09s-14.77 7.93125-41.08125 9.39c-14.50875.7975-32.52375-.365-53.50625-5.91875C9.23234 213.82 1.40609 165.31125.20859 116.09125c-.365-14.61375-.14-28.39375-.14-39.91875 0-50.33 32.97625-65.0825 32.97625-65.0825C49.67234 3.45375 78.20359.2425 107.86484 0h.72875c29.66125.2425 58.21125 3.45375 74.8375 11.09 0 0 32.975 14.7525 32.975 65.0825 0 0 .41375 37.13375-4.59875 62.915"/>
  <path transform="scale(0.07)" fill="#FFF" d="M177.50984 80.077v60.94125h-24.14375v-59.15c0-12.46875-5.24625-18.7975-15.74-18.7975-11.6025 0-17.4175 7.5075-17.4175 22.3525v32.37625H96.20734V85.42325c0-14.845-5.81625-22.3525-17.41875-22.3525-10.49375 0-15.74 6.32875-15.74 18.7975v59.15H38.90484V80.077c0-12.455 3.17125-22.3525 9.54125-29.675 6.56875-7.3225 15.17125-11.07625 25.85-11.07625 12.355 0 21.71125 4.74875 27.8975 14.2475l6.01375 10.08125 6.015-10.08125c6.185-9.49875 15.54125-14.2475 27.8975-14.2475 10.6775 0 19.28 3.75375 25.85 11.07625 6.36875 7.3225 9.54 17.22 9.54 29.675"/>
</symbol>

<symbol id="tryhackme" fill-rule="evenodd" clip-rule="evenodd" stroke-linejoin="round" stroke-miterlimit="1.414"><path d="M10.705 0C7.54 0 4.902 2.285 4.349 5.291a4.525 4.525 0 0 0-4.107 4.5 4.525 4.525 0 0 0 4.52 4.52h6.761a.625.625 0 1 0 0-1.25H4.761a3.273 3.273 0 0 1-3.27-3.27A3.273 3.273 0 0 1 6.59 7.08a.625.625 0 0 0 .7-1.035 4.488 4.488 0 0 0-1.68-.69 5.223 5.223 0 0 1 5.096-4.104 5.221 5.221 0 0 1 5.174 4.57 4.489 4.489 0 0 0-.488.305.625.625 0 1 0 .731 1.013 3.245 3.245 0 0 1 1.912-.616 3.278 3.278 0 0 1 3.203 2.61.625.625 0 0 0 1.225-.251 4.533 4.533 0 0 0-4.428-3.61 4.54 4.54 0 0 0-.958.105C16.556 2.328 13.9 0 10.705 0zm5.192 10.64a.925.925 0 0 0-.462.108.913.913 0 0 0-.313.29 1.27 1.27 0 0 0-.175.427 2.39 2.39 0 0 0-.054.514c0 .181.018.353.054.517.036.164.095.307.175.43a.899.899 0 0 0 .313.297c.127.073.281.11.462.11.18 0 .334-.037.46-.11a.897.897 0 0 0 .309-.296c.08-.124.137-.267.173-.431.036-.164.054-.336.054-.517 0-.18-.018-.352-.054-.514a1.271 1.271 0 0 0-.173-.426.901.901 0 0 0-.309-.291.917.917 0 0 0-.46-.108zm6.486 0a.925.925 0 0 0-.462.108.913.913 0 0 0-.313.29 1.27 1.27 0 0 0-.175.427 2.39 2.39 0 0 0-.053.514c0 .181.017.353.053.517.036.164.095.307.175.43a.899.899 0 0 0 .313.297c.127.073.281.11.462.11.18 0 .334-.037.46-.11a.897.897 0 0 0 .31-.296c.078-.124.136-.267.172-.431.036-.164.054-.336.054-.517 0-.18-.018-.352-.054-.514a1.271 1.271 0 0 0-.173-.426.901.901 0 0 0-.308-.291.916.916 0 0 0-.461-.108zm-8.537.068l-.84.618.313.43.476-.368v1.877h.603v-2.557zm6.486 0l-.841.618.314.43.477-.368v1.877h.603v-2.557zm-4.435.445c.08 0 .143.028.193.084.05.057.087.127.114.21.026.083.044.173.054.269a2.541 2.541 0 0 1 0 .533c-.01.097-.028.187-.054.27a.584.584 0 0 1-.114.21.243.243 0 0 1-.193.085.248.248 0 0 1-.195-.086.584.584 0 0 1-.118-.209 1.245 1.245 0 0 1-.056-.27 2.645 2.645 0 0 1 0-.533c.01-.096.029-.186.056-.27a.583.583 0 0 1 .118-.209.25.25 0 0 1 .195-.084zm6.486 0c.08 0 .144.028.193.084.05.057.087.127.114.21.027.083.044.173.054.269a2.541 2.541 0 0 1 0 .533c-.01.097-.027.187-.054.27a.584.584 0 0 1-.114.21.243.243 0 0 1-.193.085.249.249 0 0 1-.195-.086.581.581 0 0 1-.117-.209 1.245 1.245 0 0 1-.056-.27 2.642 2.642 0 0 1 0-.533c.01-.096.028-.186.056-.27a.58.58 0 0 1 .117-.209.25.25 0 0 1 .195-.084zm-2.191 3.51a.93.93 0 0 0-.463.109.908.908 0 0 0-.312.291c-.08.122-.139.263-.175.426a2.383 2.383 0 0 0-.054.514c0 .18.018.353.054.516.036.164.094.308.175.432a.91.91 0 0 0 .312.296.92.92 0 0 0 .463.11c.18 0 .333-.037.46-.11a.892.892 0 0 0 .308-.296 1.32 1.32 0 0 0 .174-.432c.036-.163.054-.335.054-.516 0-.18-.018-.352-.054-.514a1.274 1.274 0 0 0-.174-.426.89.89 0 0 0-.309-.291.918.918 0 0 0-.46-.108zm-6.402.07l-.841.617.314.43.476-.369v1.878h.604v-2.557zm2.125 0l-.841.617.314.43.477-.369v1.878h.603v-2.557zm2.116 0l-.84.617.313.43.477-.369v1.878h.603v-2.557zm2.16.443c.08 0 .144.028.194.085a.605.605 0 0 1 .114.21c.026.083.044.172.053.269a2.639 2.639 0 0 1 0 .532 1.28 1.28 0 0 1-.053.27.585.585 0 0 1-.114.21.244.244 0 0 1-.193.085.25.25 0 0 1-.196-.085.589.589 0 0 1-.117-.21 1.245 1.245 0 0 1-.056-.27 2.597 2.597 0 0 1 0-.532c.01-.097.028-.186.056-.27a.589.589 0 0 1 .117-.209.249.249 0 0 1 .196-.085zm-6.729 3.073a.676.676 0 0 0-.335.078.661.661 0 0 0-.227.211.91.91 0 0 0-.127.31c-.027.118-.04.242-.04.373s.013.256.04.375a.93.93 0 0 0 .127.313.65.65 0 0 0 .227.215c.092.053.204.08.335.08a.655.655 0 0 0 .334-.08.65.65 0 0 0 .225-.215c.057-.09.1-.194.125-.313a1.75 1.75 0 0 0 .04-.375c0-.13-.014-.255-.04-.373a.931.931 0 0 0-.125-.31.658.658 0 0 0-.225-.21.667.667 0 0 0-.334-.08zm3.086 0a.675.675 0 0 0-.336.078.661.661 0 0 0-.226.211.907.907 0 0 0-.127.31 1.69 1.69 0 0 0-.04.373c0 .131.013.256.04.375a.928.928 0 0 0 .127.313c.058.09.134.162.226.215.093.053.205.08.336.08a.655.655 0 0 0 .334-.08.65.65 0 0 0 .224-.215c.058-.09.1-.194.126-.313a1.752 1.752 0 0 0 0-.748.94.94 0 0 0-.126-.31.657.657 0 0 0-.224-.21.667.667 0 0 0-.334-.08zm5.108 0a.675.675 0 0 0-.336.078.661.661 0 0 0-.226.211.91.91 0 0 0-.127.31c-.027.118-.04.242-.04.373s.013.256.04.375a.931.931 0 0 0 .127.313c.058.09.134.162.226.215.093.053.205.08.336.08.13 0 .243-.027.334-.08a.65.65 0 0 0 .224-.215c.058-.09.1-.194.126-.313a1.75 1.75 0 0 0 .04-.375c0-.13-.014-.255-.04-.373a.943.943 0 0 0-.126-.31.657.657 0 0 0-.224-.21.668.668 0 0 0-.334-.08zm-6.658.05l-.61.448.227.311.346-.266v1.362h.438v-1.856zm3.068 0l-.61.448.227.311.346-.266v1.362h.438v-1.856zm5.108 0l-.611.448.228.311.346-.266v1.362h.438v-1.856zm-9.712.322c.058 0 .105.02.14.062a.421.421 0 0 1 .083.151.96.96 0 0 1 .04.196 1.932 1.932 0 0 1 0 .386.954.954 0 0 1-.04.197.421.421 0 0 1-.083.152.176.176 0 0 1-.14.061.18.18 0 0 1-.141-.06.427.427 0 0 1-.085-.153.887.887 0 0 1-.041-.197 1.96 1.96 0 0 1 0-.386.893.893 0 0 1 .04-.196.42.42 0 0 1 .086-.151.181.181 0 0 1 .141-.062zm3.086 0c.058 0 .104.02.14.062a.421.421 0 0 1 .082.151.94.94 0 0 1 .04.196 1.906 1.906 0 0 1 0 .386.93.93 0 0 1-.04.197.421.421 0 0 1-.082.152.176.176 0 0 1-.14.061.18.18 0 0 1-.141-.06.42.42 0 0 1-.086-.153.846.846 0 0 1-.04-.197 1.965 1.965 0 0 1-.011-.195c0-.057.004-.121.01-.191a.849.849 0 0 1 .041-.196.42.42 0 0 1 .086-.151.182.182 0 0 1 .141-.062zm5.108 0c.058 0 .104.02.14.062a.421.421 0 0 1 .082.151.92.92 0 0 1 .04.196 1.963 1.963 0 0 1 0 .386.943.943 0 0 1-.04.197.421.421 0 0 1-.082.152.177.177 0 0 1-.14.061.18.18 0 0 1-.142-.06.437.437 0 0 1-.085-.153.95.95 0 0 1-.04-.197 1.965 1.965 0 0 1-.011-.195c0-.057.004-.121.01-.191a.959.959 0 0 1 .04-.196.47.47 0 0 1 .086-.151.181.181 0 0 1 .142-.062zm-1.684 1.814a.675.675 0 0 0-.336.079.66.66 0 0 0-.227.21.91.91 0 0 0-.127.31 1.731 1.731 0 0 0 0 .748.939.939 0 0 0 .127.314c.059.09.134.162.227.215.093.053.205.08.336.08a.66.66 0 0 0 .334-.08.648.648 0 0 0 .224-.215c.058-.09.1-.195.126-.314a1.737 1.737 0 0 0-.001-.747.928.928 0 0 0-.125-.31.65.65 0 0 0-.224-.211.668.668 0 0 0-.334-.079zm3.063 0a.676.676 0 0 0-.336.079.664.664 0 0 0-.227.21.906.906 0 0 0-.127.31 1.74 1.74 0 0 0 0 .748.936.936 0 0 0 .127.314.66.66 0 0 0 .227.215c.092.053.204.08.336.08a.654.654 0 0 0 .334-.08.648.648 0 0 0 .223-.215c.058-.09.1-.195.126-.314a1.74 1.74 0 0 0 0-.747.928.928 0 0 0-.126-.31.65.65 0 0 0-.223-.211.666.666 0 0 0-.334-.079zm-1.545.05l-.611.448.228.312.346-.267v1.363h.438v-1.856zm-1.518.323c.057 0 .104.02.14.061a.42.42 0 0 1 .082.152.91.91 0 0 1 .04.195 1.966 1.966 0 0 1 0 .387.951.951 0 0 1-.04.197.421.421 0 0 1-.082.152.177.177 0 0 1-.14.06.18.18 0 0 1-.142-.06.428.428 0 0 1-.085-.152.914.914 0 0 1-.04-.197 1.96 1.96 0 0 1-.011-.195c0-.058.003-.122.01-.192a.923.923 0 0 1 .041-.195c.02-.06.048-.11.085-.152a.181.181 0 0 1 .142-.061zm3.063 0c.057 0 .104.02.14.061a.42.42 0 0 1 .082.152.94.94 0 0 1 .04.195 1.91 1.91 0 0 1 0 .387.93.93 0 0 1-.04.197.422.422 0 0 1-.083.152.175.175 0 0 1-.14.06.18.18 0 0 1-.141-.06.423.423 0 0 1-.085-.152.907.907 0 0 1-.04-.197 1.95 1.95 0 0 1 0-.387.915.915 0 0 1 .04-.195c.02-.06.048-.11.085-.152a.182.182 0 0 1 .142-.061zm-9.713.185a.465.465 0 0 0-.232.055.456.456 0 0 0-.157.146.627.627 0 0 0-.089.215 1.168 1.168 0 0 0-.027.259c0 .09.009.177.027.26a.648.648 0 0 0 .089.216c.04.063.093.112.157.149a.459.459 0 0 0 .232.056c.09 0 .168-.02.231-.056a.45.45 0 0 0 .156-.149.67.67 0 0 0 .087-.217 1.218 1.218 0 0 0 0-.518.647.647 0 0 0-.087-.215.448.448 0 0 0-.156-.146.458.458 0 0 0-.23-.055zm1.052.035l-.423.31.158.217.24-.185v.944h.303v-1.286zm-1.052.224c.04 0 .073.014.097.042a.284.284 0 0 1 .057.105.69.69 0 0 1 .028.136c.004.049.007.092.007.133 0 .04-.003.086-.007.135a.684.684 0 0 1-.028.136.285.285 0 0 1-.057.105.123.123 0 0 1-.097.043.125.125 0 0 1-.098-.043.298.298 0 0 1-.059-.105.612.612 0 0 1-.028-.136 1.39 1.39 0 0 1 0-.268.62.62 0 0 1 .028-.136.297.297 0 0 1 .06-.105.125.125 0 0 1 .097-.042zm3.775 1.394a.463.463 0 0 0-.232.054.452.452 0 0 0-.157.146.621.621 0 0 0-.088.214 1.19 1.19 0 0 0 0 .519.641.641 0 0 0 .088.217.46.46 0 0 0 .157.15.458.458 0 0 0 .232.054.454.454 0 0 0 .232-.055.45.45 0 0 0 .155-.149.664.664 0 0 0 .087-.217 1.189 1.189 0 0 0 0-.519.642.642 0 0 0-.087-.214.446.446 0 0 0-.155-.146.459.459 0 0 0-.232-.054zm1.052.034l-.423.31.158.216.24-.185v.945h.303V22.68zm-1.052.223c.04 0 .073.014.098.043a.3.3 0 0 1 .057.105.643.643 0 0 1 .027.135 1.31 1.31 0 0 1 0 .268.654.654 0 0 1-.027.137.307.307 0 0 1-.057.105.124.124 0 0 1-.098.042.125.125 0 0 1-.098-.042.293.293 0 0 1-.059-.105.618.618 0 0 1-.028-.137 1.364 1.364 0 0 1 0-.268.612.612 0 0 1 .028-.135.287.287 0 0 1 .06-.105.123.123 0 0 1 .097-.043z"/>
</symbol>

<symbol id="ctftime" fill-rule="evenodd" clip-rule="evenodd" stroke-linejoin="round" stroke-miterlimit="1.414"><path d="M 1.867188 3.601562 C 2.21875 4.027344 2.800781 4.726562 3.15625 5.15625 C 3.515625 5.59375 4.214844 6.433594 4.710938 7.03125 C 5.273438 7.710938 5.589844 8.132812 5.5625 8.175781 C 5.542969 8.207031 4.558594 9.347656 3.375 10.710938 L 1.226562 13.171875 L 14.828125 13.171875 L 14.828125 2.828125 L 1.226562 2.828125 Z M 12.800781 8.027344 L 12.800781 10.988281 L 6.558594 10.988281 L 6.558594 5.066406 L 12.800781 5.066406 Z M 12.800781 8.027344 "/>
<path d="M 8.539062 5.898438 C 8.550781 5.925781 9.023438 6.390625 9.589844 6.933594 C 10.148438 7.472656 10.613281 7.929688 10.613281 7.945312 C 10.613281 7.960938 10.28125 8.304688 9.878906 8.710938 L 9.140625 9.441406 L 8.523438 8.886719 L 8.988281 8.457031 L 9.449219 8.027344 L 7.332031 6.011719 L 7.300781 7.125 C 7.285156 7.738281 7.265625 8.675781 7.257812 9.210938 L 7.253906 10.1875 L 11.929688 10.1875 L 11.960938 9.457031 C 11.984375 9.054688 12 8.097656 12 7.324219 L 12 5.921875 L 11.507812 5.921875 C 11.238281 5.921875 10.453125 5.902344 9.765625 5.882812 C 8.992188 5.863281 8.527344 5.867188 8.539062 5.898438 Z M 8.539062 5.898438 "/>
</symbol>

</svg>
